<?xml version="1.0" encoding="UTF-8"?>
<svg id="_图层_1" data-name="图层 1" xmlns="http://www.w3.org/2000/svg" viewBox="0 0 245.99 246.22">
  <defs>
    <style>
      .cls-1 {
        fill: #fff;
      }
    </style>
  </defs>
  <path class="cls-1" d="m126.63,204.02c-13.54-.13-26.88-3.33-39.01-9.36-26.97-13.24-43.2-42.31-41.41-74.08,1.78-31.28,20.43-56.99,48.66-67.09,4.47-1.6,9.4.73,11,5.2,1.6,4.47-.73,9.4-5.2,11-25.84,9.24-36.2,32.85-37.27,51.87-1.41,24.84,11.06,47.47,31.76,57.63,29.93,14.47,52.06,5.36,62.6-1.35,14.35-9.16,23.49-24,23.27-37.81-.25-15.29-5.78-29.04-15.19-37.71-4.42-4.14-9.85-7.06-15.74-8.47.45,1.56.9,3.11,1.35,4.64,3.21,10.95,5.99,20.41,6.14,27.46.29,8.72-2.98,17.19-9.05,23.46-6.41,6.37-15.12,9.88-24.16,9.71-9.08.01-17.77-3.64-24.11-10.14-7.52-7.93-11.52-18.55-11.11-29.46.29-20.43,19.23-36.79,39.08-42.02-1.09-5.29-1.63-10.69-1.61-16.09-.3-10.32,6.6-19.47,16.6-22.03,11.09-3.01,25.07,1.25,29.92,9.09,1.2,1.94,1.57,4.28,1.05,6.5-.53,2.22-1.91,4.14-3.86,5.34-4.04,2.49-9.33,1.24-11.82-2.8-3.55-1.98-7.74-2.43-11.63-1.25-1.04.41-2.97,1.18-3.07,5.54.03,4.73.57,9.43,1.62,14.04,11.96.8,23.27,5.68,32.06,13.84,12.86,11.85,20.41,30.11,20.72,50.09.31,19.65-11.94,40.29-31.21,52.59-12.06,7.69-26.08,11.74-40.38,11.68h0Zm5.68-109.81c-13.62,3.76-25.79,15.13-25.94,25.54-.33,6.31,1.89,12.48,6.16,17.14,3.1,3.22,7.38,5.03,11.85,5.01,4.41.17,8.7-1.47,11.87-4.55,2.82-2.98,4.31-6.97,4.14-11.06-.1-4.75-2.81-14.01-5.44-22.97-.87-2.98-1.76-6.04-2.63-9.13h0Zm0,0"/>
</svg>